<?xml version='1.0' encoding='utf-8'?>
<svg xmlns="http://www.w3.org/2000/svg" xmlns:xlink="http://www.w3.org/1999/xlink" aria-hidden="true" pointer-events="none" height="3.747ex" width="7.639ex" viewBox="0 -1574 3376.6 1656" focusable="false" role="img" style="vertical-align: -0.186ex;">
 <desc>\vec{a}=\overrightarrow{O P}</desc>
 <defs>
  <path id="MJX-99-TEX-I-1D44E" d="M33 157Q33 258 109 349T280 441Q331 441 370 392Q386 422 416 422Q429 422 439 414T449 394Q449 381 412 234T374 68Q374 43 381 35T402 26Q411 27 422 35Q443 55 463 131Q469 151 473 152Q475 153 483 153H487Q506 153 506 144Q506 138 501 117T481 63T449 13Q436 0 417 -8Q409 -10 393 -10Q359 -10 336 5T306 36L300 51Q299 52 296 50Q294 48 292 46Q233 -10 172 -10Q117 -10 75 30T33 157ZM351 328Q351 334 346 350T323 385T277 405Q242 405 210 374T160 293Q131 214 119 129Q119 126 119 118T118 106Q118 61 136 44T179 26Q217 26 254 59T298 110Q300 114 325 217T351 328Z"/>
  <path id="MJX-99-TEX-N-20D7" d="M377 694Q377 702 382 708T397 714Q404 714 409 709Q414 705 419 690Q429 653 460 633Q471 626 471 615Q471 606 468 603T454 594Q411 572 379 531Q377 529 374 525T369 519T364 517T357 516Q350 516 344 521T337 536Q337 555 384 595H213L42 596Q29 605 29 615Q29 622 42 635H401Q377 673 377 694Z"/>
  <path id="MJX-99-TEX-N-3D" d="M56 347Q56 360 70 367H707Q722 359 722 347Q722 336 708 328L390 327H72Q56 332 56 347ZM56 153Q56 168 72 173H708Q722 163 722 153Q722 140 707 133H70Q56 140 56 153Z"/>
  <path id="MJX-99-TEX-I-1D442" d="M740 435Q740 320 676 213T511 42T304 -22Q207 -22 138 35T51 201Q50 209 50 244Q50 346 98 438T227 601Q351 704 476 704Q514 704 524 703Q621 689 680 617T740 435ZM637 476Q637 565 591 615T476 665Q396 665 322 605Q242 542 200 428T157 216Q157 126 200 73T314 19Q404 19 485 98T608 313Q637 408 637 476Z"/>
  <path id="MJX-99-TEX-I-1D443" d="M287 628Q287 635 230 637Q206 637 199 638T192 648Q192 649 194 659Q200 679 203 681T397 683Q587 682 600 680Q664 669 707 631T751 530Q751 453 685 389Q616 321 507 303Q500 302 402 301H307L277 182Q247 66 247 59Q247 55 248 54T255 50T272 48T305 46H336Q342 37 342 35Q342 19 335 5Q330 0 319 0Q316 0 282 1T182 2Q120 2 87 2T51 1Q33 1 33 11Q33 13 36 25Q40 41 44 43T67 46Q94 46 127 49Q141 52 146 61Q149 65 218 339T287 628ZM645 554Q645 567 643 575T634 597T609 619T560 635Q553 636 480 637Q463 637 445 637T416 636T404 636Q391 635 386 627Q384 621 367 550T332 412T314 344Q314 342 395 342H407H430Q542 342 590 392Q617 419 631 471T645 554Z"/>
  <path id="MJX-99-TEX-S4-2192" d="M56 237T56 250T70 270H835Q719 357 692 493Q692 494 692 496T691 499Q691 511 708 511H711Q720 511 723 510T729 506T732 497T735 481T743 456Q765 389 816 336T935 261Q944 258 944 250Q944 244 939 241T915 231T877 212Q836 186 806 152T761 85T740 35T732 4Q730 -6 727 -8T711 -11Q691 -11 691 0Q691 7 696 25Q728 151 835 230H70Q56 237 56 250Z"/>
  <path id="MJX-99-TEX-S4-2212" d="M84 237T84 250T98 270H679Q694 262 694 250T679 230H98Q84 237 84 250Z"/>
 </defs>
 <g transform="scale(1,-1)" stroke-width="0" stroke="currentColor" fill="currentColor">
  <g data-mml-node="math">
   <g data-mml-node="TeXAtom" data-mjx-texclass="ORD">
    <g data-mml-node="mover">
     <g data-mml-node="mi">
      <use data-c="1D44E" xlink:href="#MJX-99-TEX-I-1D44E"/>
     </g>
     <g transform="translate(264.5,30) translate(-250 0)" data-mml-node="mo">
      <use data-c="20D7" xlink:href="#MJX-99-TEX-N-20D7"/>
     </g>
    </g>
   </g>
   <g transform="translate(806.8,0)" data-mml-node="mo">
    <use data-c="3D" xlink:href="#MJX-99-TEX-N-3D"/>
   </g>
   <g transform="translate(1862.6,0)" data-mml-node="mover">
    <g data-mml-node="mrow">
     <g data-mml-node="mi">
      <use data-c="1D442" xlink:href="#MJX-99-TEX-I-1D442"/>
     </g>
     <g transform="translate(763,0)" data-mml-node="mi">
      <use data-c="1D443" xlink:href="#MJX-99-TEX-I-1D443"/>
     </g>
    </g>
    <g transform="translate(0,891)" data-mml-node="mo">
     <use transform="translate(514,0)" data-c="2192" xlink:href="#MJX-99-TEX-S4-2192"/>
     <svg x="0" y="-182" height="865" width="614" viewBox="153.5 -182 614 865">
      <use transform="scale(1.184,1)" data-c="2212" xlink:href="#MJX-99-TEX-S4-2212"/>
     </svg>
    </g>
   </g>
  </g>
 </g>
</svg>
