<?xml version='1.0' encoding='utf-8'?>
<svg xmlns:xlink="http://www.w3.org/1999/xlink" xmlns="http://www.w3.org/2000/svg" height="8.986ex" style="vertical-align: -3.928ex;" role="img" pointer-events="none" focusable="false" width="65.939ex" aria-hidden="true" viewBox="0 -2236 29145.2 3972">
 <desc>\begin{aligned}
B C^{2} &amp;=\overrightarrow{B C}{^2}=(\overrightarrow{A C}-\overrightarrow{A B})^{2}=\overrightarrow{A C} \cdot(\overrightarrow{A C}-\overrightarrow{A B})-\overrightarrow{A B} \cdot(\overrightarrow{A C}-\overrightarrow{A B}) \\
&amp;=\overrightarrow{A B}{^2}+\overrightarrow{A C}{^2}-2 \overrightarrow{A B} \cdot \overrightarrow{A C}=A B^{2}+A C^{2}-2 A B \cdot A C \cos A
\end{aligned}</desc>
 <defs>
  <path id="MJX-28-TEX-I-1D435" d="M231 637Q204 637 199 638T194 649Q194 676 205 682Q206 683 335 683Q594 683 608 681Q671 671 713 636T756 544Q756 480 698 429T565 360L555 357Q619 348 660 311T702 219Q702 146 630 78T453 1Q446 0 242 0Q42 0 39 2Q35 5 35 10Q35 17 37 24Q42 43 47 45Q51 46 62 46H68Q95 46 128 49Q142 52 147 61Q150 65 219 339T288 628Q288 635 231 637ZM649 544Q649 574 634 600T585 634Q578 636 493 637Q473 637 451 637T416 636H403Q388 635 384 626Q382 622 352 506Q352 503 351 500L320 374H401Q482 374 494 376Q554 386 601 434T649 544ZM595 229Q595 273 572 302T512 336Q506 337 429 337Q311 337 310 336Q310 334 293 263T258 122L240 52Q240 48 252 48T333 46Q422 46 429 47Q491 54 543 105T595 229Z"/>
  <path id="MJX-28-TEX-I-1D436" d="M50 252Q50 367 117 473T286 641T490 704Q580 704 633 653Q642 643 648 636T656 626L657 623Q660 623 684 649Q691 655 699 663T715 679T725 690L740 705H746Q760 705 760 698Q760 694 728 561Q692 422 692 421Q690 416 687 415T669 413H653Q647 419 647 422Q647 423 648 429T650 449T651 481Q651 552 619 605T510 659Q484 659 454 652T382 628T299 572T226 479Q194 422 175 346T156 222Q156 108 232 58Q280 24 350 24Q441 24 512 92T606 240Q610 253 612 255T628 257Q648 257 648 248Q648 243 647 239Q618 132 523 55T319 -22Q206 -22 128 53T50 252Z"/>
  <path id="MJX-28-TEX-N-32" d="M109 429Q82 429 66 447T50 491Q50 562 103 614T235 666Q326 666 387 610T449 465Q449 422 429 383T381 315T301 241Q265 210 201 149L142 93L218 92Q375 92 385 97Q392 99 409 186V189H449V186Q448 183 436 95T421 3V0H50V19V31Q50 38 56 46T86 81Q115 113 136 137Q145 147 170 174T204 211T233 244T261 278T284 308T305 340T320 369T333 401T340 431T343 464Q343 527 309 573T212 619Q179 619 154 602T119 569T109 550Q109 549 114 549Q132 549 151 535T170 489Q170 464 154 447T109 429Z"/>
  <path id="MJX-28-TEX-N-3D" d="M56 347Q56 360 70 367H707Q722 359 722 347Q722 336 708 328L390 327H72Q56 332 56 347ZM56 153Q56 168 72 173H708Q722 163 722 153Q722 140 707 133H70Q56 140 56 153Z"/>
  <path id="MJX-28-TEX-S4-2192" d="M56 237T56 250T70 270H835Q719 357 692 493Q692 494 692 496T691 499Q691 511 708 511H711Q720 511 723 510T729 506T732 497T735 481T743 456Q765 389 816 336T935 261Q944 258 944 250Q944 244 939 241T915 231T877 212Q836 186 806 152T761 85T740 35T732 4Q730 -6 727 -8T711 -11Q691 -11 691 0Q691 7 696 25Q728 151 835 230H70Q56 237 56 250Z"/>
  <path id="MJX-28-TEX-S4-2212" d="M84 237T84 250T98 270H679Q694 262 694 250T679 230H98Q84 237 84 250Z"/>
  <path id="MJX-28-TEX-N-28" d="M94 250Q94 319 104 381T127 488T164 576T202 643T244 695T277 729T302 750H315H319Q333 750 333 741Q333 738 316 720T275 667T226 581T184 443T167 250T184 58T225 -81T274 -167T316 -220T333 -241Q333 -250 318 -250H315H302L274 -226Q180 -141 137 -14T94 250Z"/>
  <path id="MJX-28-TEX-I-1D434" d="M208 74Q208 50 254 46Q272 46 272 35Q272 34 270 22Q267 8 264 4T251 0Q249 0 239 0T205 1T141 2Q70 2 50 0H42Q35 7 35 11Q37 38 48 46H62Q132 49 164 96Q170 102 345 401T523 704Q530 716 547 716H555H572Q578 707 578 706L606 383Q634 60 636 57Q641 46 701 46Q726 46 726 36Q726 34 723 22Q720 7 718 4T704 0Q701 0 690 0T651 1T578 2Q484 2 455 0H443Q437 6 437 9T439 27Q443 40 445 43L449 46H469Q523 49 533 63L521 213H283L249 155Q208 86 208 74ZM516 260Q516 271 504 416T490 562L463 519Q447 492 400 412L310 260L413 259Q516 259 516 260Z"/>
  <path id="MJX-28-TEX-N-2212" d="M84 237T84 250T98 270H679Q694 262 694 250T679 230H98Q84 237 84 250Z"/>
  <path id="MJX-28-TEX-N-29" d="M60 749L64 750Q69 750 74 750H86L114 726Q208 641 251 514T294 250Q294 182 284 119T261 12T224 -76T186 -143T145 -194T113 -227T90 -246Q87 -249 86 -250H74Q66 -250 63 -250T58 -247T55 -238Q56 -237 66 -225Q221 -64 221 250T66 725Q56 737 55 738Q55 746 60 749Z"/>
  <path id="MJX-28-TEX-N-22C5" d="M78 250Q78 274 95 292T138 310Q162 310 180 294T199 251Q199 226 182 208T139 190T96 207T78 250Z"/>
  <path id="MJX-28-TEX-N-2B" d="M56 237T56 250T70 270H369V420L370 570Q380 583 389 583Q402 583 409 568V270H707Q722 262 722 250T707 230H409V-68Q401 -82 391 -82H389H387Q375 -82 369 -68V230H70Q56 237 56 250Z"/>
  <path id="MJX-28-TEX-N-63" d="M370 305T349 305T313 320T297 358Q297 381 312 396Q317 401 317 402T307 404Q281 408 258 408Q209 408 178 376Q131 329 131 219Q131 137 162 90Q203 29 272 29Q313 29 338 55T374 117Q376 125 379 127T395 129H409Q415 123 415 120Q415 116 411 104T395 71T366 33T318 2T249 -11Q163 -11 99 53T34 214Q34 318 99 383T250 448T370 421T404 357Q404 334 387 320Z"/>
  <path id="MJX-28-TEX-N-6F" d="M28 214Q28 309 93 378T250 448Q340 448 405 380T471 215Q471 120 407 55T250 -10Q153 -10 91 57T28 214ZM250 30Q372 30 372 193V225V250Q372 272 371 288T364 326T348 362T317 390T268 410Q263 411 252 411Q222 411 195 399Q152 377 139 338T126 246V226Q126 130 145 91Q177 30 250 30Z"/>
  <path id="MJX-28-TEX-N-73" d="M295 316Q295 356 268 385T190 414Q154 414 128 401Q98 382 98 349Q97 344 98 336T114 312T157 287Q175 282 201 278T245 269T277 256Q294 248 310 236T342 195T359 133Q359 71 321 31T198 -10H190Q138 -10 94 26L86 19L77 10Q71 4 65 -1L54 -11H46H42Q39 -11 33 -5V74V132Q33 153 35 157T45 162H54Q66 162 70 158T75 146T82 119T101 77Q136 26 198 26Q295 26 295 104Q295 133 277 151Q257 175 194 187T111 210Q75 227 54 256T33 318Q33 357 50 384T93 424T143 442T187 447H198Q238 447 268 432L283 424L292 431Q302 440 314 448H322H326Q329 448 335 442V310L329 304H301Q295 310 295 316Z"/>
  <path id="MJX-28-TEX-N-2061" d=""/>
 </defs>
 <g transform="scale(1,-1)" stroke="currentColor" stroke-width="0" fill="currentColor">
  <g data-mml-node="math">
   <g data-mml-node="mtable">
    <g transform="translate(0,650)" data-mml-node="mtr">
     <g data-mml-node="mtd">
      <g data-mml-node="mi">
       <use data-c="1D435" xlink:href="#MJX-28-TEX-I-1D435"/>
      </g>
      <g transform="translate(759,0)" data-mml-node="msup">
       <g data-mml-node="mi">
        <use data-c="1D436" xlink:href="#MJX-28-TEX-I-1D436"/>
       </g>
       <g transform="translate(845.3,413) scale(0.707)" data-mml-node="TeXAtom" data-mjx-texclass="ORD">
        <g data-mml-node="mn">
         <use data-c="32" xlink:href="#MJX-28-TEX-N-32"/>
        </g>
       </g>
      </g>
     </g>
     <g transform="translate(2007.8,0)" data-mml-node="mtd">
      <g data-mml-node="mi"/>
      <g transform="translate(277.8,0)" data-mml-node="mo">
       <use data-c="3D" xlink:href="#MJX-28-TEX-N-3D"/>
      </g>
      <g transform="translate(1333.6,0)" data-mml-node="mover">
       <g data-mml-node="mrow">
        <g data-mml-node="mi">
         <use data-c="1D435" xlink:href="#MJX-28-TEX-I-1D435"/>
        </g>
        <g transform="translate(759,0)" data-mml-node="mi">
         <use data-c="1D436" xlink:href="#MJX-28-TEX-I-1D436"/>
        </g>
       </g>
       <g transform="translate(0,892)" data-mml-node="mo">
        <use data-c="2192" transform="translate(519,0)" xlink:href="#MJX-28-TEX-S4-2192"/>
        <svg height="865" x="0" y="-182" width="619" viewBox="154.8 -182 619 865">
         <use data-c="2212" transform="scale(1.193,1)" xlink:href="#MJX-28-TEX-S4-2212"/>
        </svg>
       </g>
      </g>
      <g transform="translate(2852.6,0)" data-mml-node="TeXAtom" data-mjx-texclass="ORD">
       <g data-mml-node="msup">
        <g data-mml-node="mi"/>
        <g transform="translate(33,413) scale(0.707)" data-mml-node="mn">
         <use data-c="32" xlink:href="#MJX-28-TEX-N-32"/>
        </g>
       </g>
      </g>
      <g transform="translate(3566.9,0)" data-mml-node="mo">
       <use data-c="3D" xlink:href="#MJX-28-TEX-N-3D"/>
      </g>
      <g transform="translate(4622.7,0)" data-mml-node="mo">
       <use data-c="28" xlink:href="#MJX-28-TEX-N-28"/>
      </g>
      <g transform="translate(5011.7,0)" data-mml-node="mover">
       <g data-mml-node="mrow">
        <g data-mml-node="mi">
         <use data-c="1D434" xlink:href="#MJX-28-TEX-I-1D434"/>
        </g>
        <g transform="translate(750,0)" data-mml-node="mi">
         <use data-c="1D436" xlink:href="#MJX-28-TEX-I-1D436"/>
        </g>
       </g>
       <g transform="translate(0,903)" data-mml-node="mo">
        <use data-c="2192" transform="translate(510,0)" xlink:href="#MJX-28-TEX-S4-2192"/>
        <svg height="865" x="0" y="-182" width="610" viewBox="152.5 -182 610 865">
         <use data-c="2212" transform="scale(1.176,1)" xlink:href="#MJX-28-TEX-S4-2212"/>
        </svg>
       </g>
      </g>
      <g transform="translate(6743.9,0)" data-mml-node="mo">
       <use data-c="2212" xlink:href="#MJX-28-TEX-N-2212"/>
      </g>
      <g transform="translate(7744.1,0)" data-mml-node="mover">
       <g data-mml-node="mrow">
        <g data-mml-node="mi">
         <use data-c="1D434" xlink:href="#MJX-28-TEX-I-1D434"/>
        </g>
        <g transform="translate(750,0)" data-mml-node="mi">
         <use data-c="1D435" xlink:href="#MJX-28-TEX-I-1D435"/>
        </g>
       </g>
       <g transform="translate(0,903)" data-mml-node="mo">
        <use data-c="2192" transform="translate(509,0)" xlink:href="#MJX-28-TEX-S4-2192"/>
        <svg height="865" x="0" y="-182" width="609" viewBox="152.2 -182 609 865">
         <use data-c="2212" transform="scale(1.174,1)" xlink:href="#MJX-28-TEX-S4-2212"/>
        </svg>
       </g>
      </g>
      <g transform="translate(9253.1,0)" data-mml-node="msup">
       <g data-mml-node="mo">
        <use data-c="29" xlink:href="#MJX-28-TEX-N-29"/>
       </g>
       <g transform="translate(422,413) scale(0.707)" data-mml-node="TeXAtom" data-mjx-texclass="ORD">
        <g data-mml-node="mn">
         <use data-c="32" xlink:href="#MJX-28-TEX-N-32"/>
        </g>
       </g>
      </g>
      <g transform="translate(10356.4,0)" data-mml-node="mo">
       <use data-c="3D" xlink:href="#MJX-28-TEX-N-3D"/>
      </g>
      <g transform="translate(11412.2,0)" data-mml-node="mover">
       <g data-mml-node="mrow">
        <g data-mml-node="mi">
         <use data-c="1D434" xlink:href="#MJX-28-TEX-I-1D434"/>
        </g>
        <g transform="translate(750,0)" data-mml-node="mi">
         <use data-c="1D436" xlink:href="#MJX-28-TEX-I-1D436"/>
        </g>
       </g>
       <g transform="translate(0,903)" data-mml-node="mo">
        <use data-c="2192" transform="translate(510,0)" xlink:href="#MJX-28-TEX-S4-2192"/>
        <svg height="865" x="0" y="-182" width="610" viewBox="152.5 -182 610 865">
         <use data-c="2212" transform="scale(1.176,1)" xlink:href="#MJX-28-TEX-S4-2212"/>
        </svg>
       </g>
      </g>
      <g transform="translate(13144.4,0)" data-mml-node="mo">
       <use data-c="22C5" xlink:href="#MJX-28-TEX-N-22C5"/>
      </g>
      <g transform="translate(13644.7,0)" data-mml-node="mo">
       <use data-c="28" xlink:href="#MJX-28-TEX-N-28"/>
      </g>
      <g transform="translate(14033.7,0)" data-mml-node="mover">
       <g data-mml-node="mrow">
        <g data-mml-node="mi">
         <use data-c="1D434" xlink:href="#MJX-28-TEX-I-1D434"/>
        </g>
        <g transform="translate(750,0)" data-mml-node="mi">
         <use data-c="1D436" xlink:href="#MJX-28-TEX-I-1D436"/>
        </g>
       </g>
       <g transform="translate(0,903)" data-mml-node="mo">
        <use data-c="2192" transform="translate(510,0)" xlink:href="#MJX-28-TEX-S4-2192"/>
        <svg height="865" x="0" y="-182" width="610" viewBox="152.5 -182 610 865">
         <use data-c="2212" transform="scale(1.176,1)" xlink:href="#MJX-28-TEX-S4-2212"/>
        </svg>
       </g>
      </g>
      <g transform="translate(15765.9,0)" data-mml-node="mo">
       <use data-c="2212" xlink:href="#MJX-28-TEX-N-2212"/>
      </g>
      <g transform="translate(16766.1,0)" data-mml-node="mover">
       <g data-mml-node="mrow">
        <g data-mml-node="mi">
         <use data-c="1D434" xlink:href="#MJX-28-TEX-I-1D434"/>
        </g>
        <g transform="translate(750,0)" data-mml-node="mi">
         <use data-c="1D435" xlink:href="#MJX-28-TEX-I-1D435"/>
        </g>
       </g>
       <g transform="translate(0,903)" data-mml-node="mo">
        <use data-c="2192" transform="translate(509,0)" xlink:href="#MJX-28-TEX-S4-2192"/>
        <svg height="865" x="0" y="-182" width="609" viewBox="152.2 -182 609 865">
         <use data-c="2212" transform="scale(1.174,1)" xlink:href="#MJX-28-TEX-S4-2212"/>
        </svg>
       </g>
      </g>
      <g transform="translate(18275.1,0)" data-mml-node="mo">
       <use data-c="29" xlink:href="#MJX-28-TEX-N-29"/>
      </g>
      <g transform="translate(18886.3,0)" data-mml-node="mo">
       <use data-c="2212" xlink:href="#MJX-28-TEX-N-2212"/>
      </g>
      <g transform="translate(19886.6,0)" data-mml-node="mover">
       <g data-mml-node="mrow">
        <g data-mml-node="mi">
         <use data-c="1D434" xlink:href="#MJX-28-TEX-I-1D434"/>
        </g>
        <g transform="translate(750,0)" data-mml-node="mi">
         <use data-c="1D435" xlink:href="#MJX-28-TEX-I-1D435"/>
        </g>
       </g>
       <g transform="translate(0,903)" data-mml-node="mo">
        <use data-c="2192" transform="translate(509,0)" xlink:href="#MJX-28-TEX-S4-2192"/>
        <svg height="865" x="0" y="-182" width="609" viewBox="152.2 -182 609 865">
         <use data-c="2212" transform="scale(1.174,1)" xlink:href="#MJX-28-TEX-S4-2212"/>
        </svg>
       </g>
      </g>
      <g transform="translate(21617.8,0)" data-mml-node="mo">
       <use data-c="22C5" xlink:href="#MJX-28-TEX-N-22C5"/>
      </g>
      <g transform="translate(22118,0)" data-mml-node="mo">
       <use data-c="28" xlink:href="#MJX-28-TEX-N-28"/>
      </g>
      <g transform="translate(22507,0)" data-mml-node="mover">
       <g data-mml-node="mrow">
        <g data-mml-node="mi">
         <use data-c="1D434" xlink:href="#MJX-28-TEX-I-1D434"/>
        </g>
        <g transform="translate(750,0)" data-mml-node="mi">
         <use data-c="1D436" xlink:href="#MJX-28-TEX-I-1D436"/>
        </g>
       </g>
       <g transform="translate(0,903)" data-mml-node="mo">
        <use data-c="2192" transform="translate(510,0)" xlink:href="#MJX-28-TEX-S4-2192"/>
        <svg height="865" x="0" y="-182" width="610" viewBox="152.5 -182 610 865">
         <use data-c="2212" transform="scale(1.176,1)" xlink:href="#MJX-28-TEX-S4-2212"/>
        </svg>
       </g>
      </g>
      <g transform="translate(24239.2,0)" data-mml-node="mo">
       <use data-c="2212" xlink:href="#MJX-28-TEX-N-2212"/>
      </g>
      <g transform="translate(25239.4,0)" data-mml-node="mover">
       <g data-mml-node="mrow">
        <g data-mml-node="mi">
         <use data-c="1D434" xlink:href="#MJX-28-TEX-I-1D434"/>
        </g>
        <g transform="translate(750,0)" data-mml-node="mi">
         <use data-c="1D435" xlink:href="#MJX-28-TEX-I-1D435"/>
        </g>
       </g>
       <g transform="translate(0,903)" data-mml-node="mo">
        <use data-c="2192" transform="translate(509,0)" xlink:href="#MJX-28-TEX-S4-2192"/>
        <svg height="865" x="0" y="-182" width="609" viewBox="152.2 -182 609 865">
         <use data-c="2212" transform="scale(1.174,1)" xlink:href="#MJX-28-TEX-S4-2212"/>
        </svg>
       </g>
      </g>
      <g transform="translate(26748.4,0)" data-mml-node="mo">
       <use data-c="29" xlink:href="#MJX-28-TEX-N-29"/>
      </g>
     </g>
    </g>
    <g transform="translate(0,-1486)" data-mml-node="mtr">
     <g transform="translate(2007.8,0)" data-mml-node="mtd"/>
     <g transform="translate(2007.8,0)" data-mml-node="mtd">
      <g data-mml-node="mi"/>
      <g transform="translate(277.8,0)" data-mml-node="mo">
       <use data-c="3D" xlink:href="#MJX-28-TEX-N-3D"/>
      </g>
      <g transform="translate(1333.6,0)" data-mml-node="mover">
       <g data-mml-node="mrow">
        <g data-mml-node="mi">
         <use data-c="1D434" xlink:href="#MJX-28-TEX-I-1D434"/>
        </g>
        <g transform="translate(750,0)" data-mml-node="mi">
         <use data-c="1D435" xlink:href="#MJX-28-TEX-I-1D435"/>
        </g>
       </g>
       <g transform="translate(0,903)" data-mml-node="mo">
        <use data-c="2192" transform="translate(509,0)" xlink:href="#MJX-28-TEX-S4-2192"/>
        <svg height="865" x="0" y="-182" width="609" viewBox="152.2 -182 609 865">
         <use data-c="2212" transform="scale(1.174,1)" xlink:href="#MJX-28-TEX-S4-2212"/>
        </svg>
       </g>
      </g>
      <g transform="translate(2842.6,0)" data-mml-node="TeXAtom" data-mjx-texclass="ORD">
       <g data-mml-node="msup">
        <g data-mml-node="mi"/>
        <g transform="translate(33,413) scale(0.707)" data-mml-node="mn">
         <use data-c="32" xlink:href="#MJX-28-TEX-N-32"/>
        </g>
       </g>
      </g>
      <g transform="translate(3501.3,0)" data-mml-node="mo">
       <use data-c="2B" xlink:href="#MJX-28-TEX-N-2B"/>
      </g>
      <g transform="translate(4501.6,0)" data-mml-node="mover">
       <g data-mml-node="mrow">
        <g data-mml-node="mi">
         <use data-c="1D434" xlink:href="#MJX-28-TEX-I-1D434"/>
        </g>
        <g transform="translate(750,0)" data-mml-node="mi">
         <use data-c="1D436" xlink:href="#MJX-28-TEX-I-1D436"/>
        </g>
       </g>
       <g transform="translate(0,903)" data-mml-node="mo">
        <use data-c="2192" transform="translate(510,0)" xlink:href="#MJX-28-TEX-S4-2192"/>
        <svg height="865" x="0" y="-182" width="610" viewBox="152.5 -182 610 865">
         <use data-c="2212" transform="scale(1.176,1)" xlink:href="#MJX-28-TEX-S4-2212"/>
        </svg>
       </g>
      </g>
      <g transform="translate(6011.6,0)" data-mml-node="TeXAtom" data-mjx-texclass="ORD">
       <g data-mml-node="msup">
        <g data-mml-node="mi"/>
        <g transform="translate(33,413) scale(0.707)" data-mml-node="mn">
         <use data-c="32" xlink:href="#MJX-28-TEX-N-32"/>
        </g>
       </g>
      </g>
      <g transform="translate(6670.3,0)" data-mml-node="mo">
       <use data-c="2212" xlink:href="#MJX-28-TEX-N-2212"/>
      </g>
      <g transform="translate(7670.6,0)" data-mml-node="mn">
       <use data-c="32" xlink:href="#MJX-28-TEX-N-32"/>
      </g>
      <g transform="translate(8170.6,0)" data-mml-node="mover">
       <g data-mml-node="mrow">
        <g data-mml-node="mi">
         <use data-c="1D434" xlink:href="#MJX-28-TEX-I-1D434"/>
        </g>
        <g transform="translate(750,0)" data-mml-node="mi">
         <use data-c="1D435" xlink:href="#MJX-28-TEX-I-1D435"/>
        </g>
       </g>
       <g transform="translate(0,903)" data-mml-node="mo">
        <use data-c="2192" transform="translate(509,0)" xlink:href="#MJX-28-TEX-S4-2192"/>
        <svg height="865" x="0" y="-182" width="609" viewBox="152.2 -182 609 865">
         <use data-c="2212" transform="scale(1.174,1)" xlink:href="#MJX-28-TEX-S4-2212"/>
        </svg>
       </g>
      </g>
      <g transform="translate(9901.8,0)" data-mml-node="mo">
       <use data-c="22C5" xlink:href="#MJX-28-TEX-N-22C5"/>
      </g>
      <g transform="translate(10402,0)" data-mml-node="mover">
       <g data-mml-node="mrow">
        <g data-mml-node="mi">
         <use data-c="1D434" xlink:href="#MJX-28-TEX-I-1D434"/>
        </g>
        <g transform="translate(750,0)" data-mml-node="mi">
         <use data-c="1D436" xlink:href="#MJX-28-TEX-I-1D436"/>
        </g>
       </g>
       <g transform="translate(0,903)" data-mml-node="mo">
        <use data-c="2192" transform="translate(510,0)" xlink:href="#MJX-28-TEX-S4-2192"/>
        <svg height="865" x="0" y="-182" width="610" viewBox="152.5 -182 610 865">
         <use data-c="2212" transform="scale(1.176,1)" xlink:href="#MJX-28-TEX-S4-2212"/>
        </svg>
       </g>
      </g>
      <g transform="translate(12189.8,0)" data-mml-node="mo">
       <use data-c="3D" xlink:href="#MJX-28-TEX-N-3D"/>
      </g>
      <g transform="translate(13245.6,0)" data-mml-node="mi">
       <use data-c="1D434" xlink:href="#MJX-28-TEX-I-1D434"/>
      </g>
      <g transform="translate(13995.6,0)" data-mml-node="msup">
       <g data-mml-node="mi">
        <use data-c="1D435" xlink:href="#MJX-28-TEX-I-1D435"/>
       </g>
       <g transform="translate(792,413) scale(0.707)" data-mml-node="TeXAtom" data-mjx-texclass="ORD">
        <g data-mml-node="mn">
         <use data-c="32" xlink:href="#MJX-28-TEX-N-32"/>
        </g>
       </g>
      </g>
      <g transform="translate(15413.3,0)" data-mml-node="mo">
       <use data-c="2B" xlink:href="#MJX-28-TEX-N-2B"/>
      </g>
      <g transform="translate(16413.5,0)" data-mml-node="mi">
       <use data-c="1D434" xlink:href="#MJX-28-TEX-I-1D434"/>
      </g>
      <g transform="translate(17163.5,0)" data-mml-node="msup">
       <g data-mml-node="mi">
        <use data-c="1D436" xlink:href="#MJX-28-TEX-I-1D436"/>
       </g>
       <g transform="translate(845.3,413) scale(0.707)" data-mml-node="TeXAtom" data-mjx-texclass="ORD">
        <g data-mml-node="mn">
         <use data-c="32" xlink:href="#MJX-28-TEX-N-32"/>
        </g>
       </g>
      </g>
      <g transform="translate(18634.6,0)" data-mml-node="mo">
       <use data-c="2212" xlink:href="#MJX-28-TEX-N-2212"/>
      </g>
      <g transform="translate(19634.8,0)" data-mml-node="mn">
       <use data-c="32" xlink:href="#MJX-28-TEX-N-32"/>
      </g>
      <g transform="translate(20134.8,0)" data-mml-node="mi">
       <use data-c="1D434" xlink:href="#MJX-28-TEX-I-1D434"/>
      </g>
      <g transform="translate(20884.8,0)" data-mml-node="mi">
       <use data-c="1D435" xlink:href="#MJX-28-TEX-I-1D435"/>
      </g>
      <g transform="translate(21866,0)" data-mml-node="mo">
       <use data-c="22C5" xlink:href="#MJX-28-TEX-N-22C5"/>
      </g>
      <g transform="translate(22366.2,0)" data-mml-node="mi">
       <use data-c="1D434" xlink:href="#MJX-28-TEX-I-1D434"/>
      </g>
      <g transform="translate(23116.2,0)" data-mml-node="mi">
       <use data-c="1D436" xlink:href="#MJX-28-TEX-I-1D436"/>
      </g>
      <g transform="translate(24042.9,0)" data-mml-node="mi">
       <use data-c="63" xlink:href="#MJX-28-TEX-N-63"/>
       <use data-c="6F" transform="translate(444,0)" xlink:href="#MJX-28-TEX-N-6F"/>
       <use data-c="73" transform="translate(944,0)" xlink:href="#MJX-28-TEX-N-73"/>
      </g>
      <g transform="translate(25380.9,0)" data-mml-node="mo">
       <use data-c="2061" xlink:href="#MJX-28-TEX-N-2061"/>
      </g>
      <g transform="translate(25547.6,0)" data-mml-node="mi">
       <use data-c="1D434" xlink:href="#MJX-28-TEX-I-1D434"/>
      </g>
     </g>
    </g>
   </g>
  </g>
 </g>
</svg>
