<?xml version='1.0' encoding='utf-8'?>
<svg xmlns="http://www.w3.org/2000/svg" xmlns:xlink="http://www.w3.org/1999/xlink" role="img" viewBox="0 -1392 6983.8 2352" focusable="false" style="vertical-align: -2.172ex;" aria-hidden="true" pointer-events="none" width="15.801ex" height="5.321ex">
 <desc>A_{n}^{m}=\frac{n !}{(m-n) !}</desc>
 <defs>
  <path d="M208 74Q208 50 254 46Q272 46 272 35Q272 34 270 22Q267 8 264 4T251 0Q249 0 239 0T205 1T141 2Q70 2 50 0H42Q35 7 35 11Q37 38 48 46H62Q132 49 164 96Q170 102 345 401T523 704Q530 716 547 716H555H572Q578 707 578 706L606 383Q634 60 636 57Q641 46 701 46Q726 46 726 36Q726 34 723 22Q720 7 718 4T704 0Q701 0 690 0T651 1T578 2Q484 2 455 0H443Q437 6 437 9T439 27Q443 40 445 43L449 46H469Q523 49 533 63L521 213H283L249 155Q208 86 208 74ZM516 260Q516 271 504 416T490 562L463 519Q447 492 400 412L310 260L413 259Q516 259 516 260Z" id="MJX-23-TEX-I-1D434"/>
  <path d="M21 287Q22 293 24 303T36 341T56 388T88 425T132 442T175 435T205 417T221 395T229 376L231 369Q231 367 232 367L243 378Q303 442 384 442Q401 442 415 440T441 433T460 423T475 411T485 398T493 385T497 373T500 364T502 357L510 367Q573 442 659 442Q713 442 746 415T780 336Q780 285 742 178T704 50Q705 36 709 31T724 26Q752 26 776 56T815 138Q818 149 821 151T837 153Q857 153 857 145Q857 144 853 130Q845 101 831 73T785 17T716 -10Q669 -10 648 17T627 73Q627 92 663 193T700 345Q700 404 656 404H651Q565 404 506 303L499 291L466 157Q433 26 428 16Q415 -11 385 -11Q372 -11 364 -4T353 8T350 18Q350 29 384 161L420 307Q423 322 423 345Q423 404 379 404H374Q288 404 229 303L222 291L189 157Q156 26 151 16Q138 -11 108 -11Q95 -11 87 -5T76 7T74 17Q74 30 112 181Q151 335 151 342Q154 357 154 369Q154 405 129 405Q107 405 92 377T69 316T57 280Q55 278 41 278H27Q21 284 21 287Z" id="MJX-23-TEX-I-1D45A"/>
  <path d="M21 287Q22 293 24 303T36 341T56 388T89 425T135 442Q171 442 195 424T225 390T231 369Q231 367 232 367L243 378Q304 442 382 442Q436 442 469 415T503 336T465 179T427 52Q427 26 444 26Q450 26 453 27Q482 32 505 65T540 145Q542 153 560 153Q580 153 580 145Q580 144 576 130Q568 101 554 73T508 17T439 -10Q392 -10 371 17T350 73Q350 92 386 193T423 345Q423 404 379 404H374Q288 404 229 303L222 291L189 157Q156 26 151 16Q138 -11 108 -11Q95 -11 87 -5T76 7T74 17Q74 30 112 180T152 343Q153 348 153 366Q153 405 129 405Q91 405 66 305Q60 285 60 284Q58 278 41 278H27Q21 284 21 287Z" id="MJX-23-TEX-I-1D45B"/>
  <path d="M56 347Q56 360 70 367H707Q722 359 722 347Q722 336 708 328L390 327H72Q56 332 56 347ZM56 153Q56 168 72 173H708Q722 163 722 153Q722 140 707 133H70Q56 140 56 153Z" id="MJX-23-TEX-N-3D"/>
  <path d="M78 661Q78 682 96 699T138 716T180 700T199 661Q199 654 179 432T158 206Q156 198 139 198Q121 198 119 206Q118 209 98 431T78 661ZM79 61Q79 89 97 105T141 121Q164 119 181 104T198 61Q198 31 181 16T139 1Q114 1 97 16T79 61Z" id="MJX-23-TEX-N-21"/>
  <path d="M94 250Q94 319 104 381T127 488T164 576T202 643T244 695T277 729T302 750H315H319Q333 750 333 741Q333 738 316 720T275 667T226 581T184 443T167 250T184 58T225 -81T274 -167T316 -220T333 -241Q333 -250 318 -250H315H302L274 -226Q180 -141 137 -14T94 250Z" id="MJX-23-TEX-N-28"/>
  <path d="M84 237T84 250T98 270H679Q694 262 694 250T679 230H98Q84 237 84 250Z" id="MJX-23-TEX-N-2212"/>
  <path d="M60 749L64 750Q69 750 74 750H86L114 726Q208 641 251 514T294 250Q294 182 284 119T261 12T224 -76T186 -143T145 -194T113 -227T90 -246Q87 -249 86 -250H74Q66 -250 63 -250T58 -247T55 -238Q56 -237 66 -225Q221 -64 221 250T66 725Q56 737 55 738Q55 746 60 749Z" id="MJX-23-TEX-N-29"/>
 </defs>
 <g transform="scale(1,-1)" stroke="currentColor" fill="currentColor" stroke-width="0">
  <g data-mml-node="math">
   <g data-mml-node="msubsup">
    <g data-mml-node="mi">
     <use xlink:href="#MJX-23-TEX-I-1D434" data-c="1D434"/>
    </g>
    <g data-mjx-texclass="ORD" transform="translate(783,413) scale(0.707)" data-mml-node="TeXAtom">
     <g data-mml-node="mi">
      <use xlink:href="#MJX-23-TEX-I-1D45A" data-c="1D45A"/>
     </g>
    </g>
    <g data-mjx-texclass="ORD" transform="translate(783,-247) scale(0.707)" data-mml-node="TeXAtom">
     <g data-mml-node="mi">
      <use xlink:href="#MJX-23-TEX-I-1D45B" data-c="1D45B"/>
     </g>
    </g>
   </g>
   <g transform="translate(1731.6,0)" data-mml-node="mo">
    <use xlink:href="#MJX-23-TEX-N-3D" data-c="3D"/>
   </g>
   <g transform="translate(2787.4,0)" data-mml-node="mfrac">
    <g transform="translate(1659.2,676)" data-mml-node="mrow">
     <g data-mml-node="mi">
      <use xlink:href="#MJX-23-TEX-I-1D45B" data-c="1D45B"/>
     </g>
     <g transform="translate(600,0)" data-mml-node="mo">
      <use xlink:href="#MJX-23-TEX-N-21" data-c="21"/>
     </g>
    </g>
    <g transform="translate(220,-710)" data-mml-node="mrow">
     <g data-mml-node="mo">
      <use xlink:href="#MJX-23-TEX-N-28" data-c="28"/>
     </g>
     <g transform="translate(389,0)" data-mml-node="mi">
      <use xlink:href="#MJX-23-TEX-I-1D45A" data-c="1D45A"/>
     </g>
     <g transform="translate(1489.2,0)" data-mml-node="mo">
      <use xlink:href="#MJX-23-TEX-N-2212" data-c="2212"/>
     </g>
     <g transform="translate(2489.4,0)" data-mml-node="mi">
      <use xlink:href="#MJX-23-TEX-I-1D45B" data-c="1D45B"/>
     </g>
     <g transform="translate(3089.4,0)" data-mml-node="mo">
      <use xlink:href="#MJX-23-TEX-N-29" data-c="29"/>
     </g>
     <g transform="translate(3478.4,0)" data-mml-node="mo">
      <use xlink:href="#MJX-23-TEX-N-21" data-c="21"/>
     </g>
    </g>
    <rect y="220" x="120" width="3956.4" height="60"/>
   </g>
  </g>
 </g>
</svg>
