<?xml version='1.0' encoding='utf-8'?>
<svg xmlns="http://www.w3.org/2000/svg" xmlns:xlink="http://www.w3.org/1999/xlink" role="img" viewBox="0 -1352 12796.7 2060" focusable="false" style="vertical-align: -1.602ex;" aria-hidden="true" pointer-events="none" width="28.952ex" height="4.661ex">
 <desc>\frac{\pi}{12}=\frac{\pi}{3}-\frac{\pi}{4},\ \frac{7 \pi}{12}=\frac{\pi}{3}+\frac{\pi}{4}</desc>
 <defs>
  <path d="M132 -11Q98 -11 98 22V33L111 61Q186 219 220 334L228 358H196Q158 358 142 355T103 336Q92 329 81 318T62 297T53 285Q51 284 38 284Q19 284 19 294Q19 300 38 329T93 391T164 429Q171 431 389 431Q549 431 553 430Q573 423 573 402Q573 371 541 360Q535 358 472 358H408L405 341Q393 269 393 222Q393 170 402 129T421 65T431 37Q431 20 417 5T381 -10Q370 -10 363 -7T347 17T331 77Q330 86 330 121Q330 170 339 226T357 318T367 358H269L268 354Q268 351 249 275T206 114T175 17Q164 -11 132 -11Z" id="MJX-45-TEX-I-1D70B"/>
  <path d="M213 578L200 573Q186 568 160 563T102 556H83V602H102Q149 604 189 617T245 641T273 663Q275 666 285 666Q294 666 302 660V361L303 61Q310 54 315 52T339 48T401 46H427V0H416Q395 3 257 3Q121 3 100 0H88V46H114Q136 46 152 46T177 47T193 50T201 52T207 57T213 61V578Z" id="MJX-45-TEX-N-31"/>
  <path d="M109 429Q82 429 66 447T50 491Q50 562 103 614T235 666Q326 666 387 610T449 465Q449 422 429 383T381 315T301 241Q265 210 201 149L142 93L218 92Q375 92 385 97Q392 99 409 186V189H449V186Q448 183 436 95T421 3V0H50V19V31Q50 38 56 46T86 81Q115 113 136 137Q145 147 170 174T204 211T233 244T261 278T284 308T305 340T320 369T333 401T340 431T343 464Q343 527 309 573T212 619Q179 619 154 602T119 569T109 550Q109 549 114 549Q132 549 151 535T170 489Q170 464 154 447T109 429Z" id="MJX-45-TEX-N-32"/>
  <path d="M56 347Q56 360 70 367H707Q722 359 722 347Q722 336 708 328L390 327H72Q56 332 56 347ZM56 153Q56 168 72 173H708Q722 163 722 153Q722 140 707 133H70Q56 140 56 153Z" id="MJX-45-TEX-N-3D"/>
  <path d="M127 463Q100 463 85 480T69 524Q69 579 117 622T233 665Q268 665 277 664Q351 652 390 611T430 522Q430 470 396 421T302 350L299 348Q299 347 308 345T337 336T375 315Q457 262 457 175Q457 96 395 37T238 -22Q158 -22 100 21T42 130Q42 158 60 175T105 193Q133 193 151 175T169 130Q169 119 166 110T159 94T148 82T136 74T126 70T118 67L114 66Q165 21 238 21Q293 21 321 74Q338 107 338 175V195Q338 290 274 322Q259 328 213 329L171 330L168 332Q166 335 166 348Q166 366 174 366Q202 366 232 371Q266 376 294 413T322 525V533Q322 590 287 612Q265 626 240 626Q208 626 181 615T143 592T132 580H135Q138 579 143 578T153 573T165 566T175 555T183 540T186 520Q186 498 172 481T127 463Z" id="MJX-45-TEX-N-33"/>
  <path d="M84 237T84 250T98 270H679Q694 262 694 250T679 230H98Q84 237 84 250Z" id="MJX-45-TEX-N-2212"/>
  <path d="M462 0Q444 3 333 3Q217 3 199 0H190V46H221Q241 46 248 46T265 48T279 53T286 61Q287 63 287 115V165H28V211L179 442Q332 674 334 675Q336 677 355 677H373L379 671V211H471V165H379V114Q379 73 379 66T385 54Q393 47 442 46H471V0H462ZM293 211V545L74 212L183 211H293Z" id="MJX-45-TEX-N-34"/>
  <path d="M78 35T78 60T94 103T137 121Q165 121 187 96T210 8Q210 -27 201 -60T180 -117T154 -158T130 -185T117 -194Q113 -194 104 -185T95 -172Q95 -168 106 -156T131 -126T157 -76T173 -3V9L172 8Q170 7 167 6T161 3T152 1T140 0Q113 0 96 17Z" id="MJX-45-TEX-N-2C"/>
  <path d="" id="MJX-45-TEX-N-A0"/>
  <path d="M55 458Q56 460 72 567L88 674Q88 676 108 676H128V672Q128 662 143 655T195 646T364 644H485V605L417 512Q408 500 387 472T360 435T339 403T319 367T305 330T292 284T284 230T278 162T275 80Q275 66 275 52T274 28V19Q270 2 255 -10T221 -22Q210 -22 200 -19T179 0T168 40Q168 198 265 368Q285 400 349 489L395 552H302Q128 552 119 546Q113 543 108 522T98 479L95 458V455H55V458Z" id="MJX-45-TEX-N-37"/>
  <path d="M56 237T56 250T70 270H369V420L370 570Q380 583 389 583Q402 583 409 568V270H707Q722 262 722 250T707 230H409V-68Q401 -82 391 -82H389H387Q375 -82 369 -68V230H70Q56 237 56 250Z" id="MJX-45-TEX-N-2B"/>
 </defs>
 <g transform="scale(1,-1)" stroke="currentColor" fill="currentColor" stroke-width="0">
  <g data-mml-node="math">
   <g data-mml-node="mfrac">
    <g transform="translate(435,676)" data-mml-node="mi">
     <use xlink:href="#MJX-45-TEX-I-1D70B" data-c="1D70B"/>
    </g>
    <g transform="translate(220,-686)" data-mml-node="mn">
     <use xlink:href="#MJX-45-TEX-N-31" data-c="31"/>
     <use transform="translate(500,0)" xlink:href="#MJX-45-TEX-N-32" data-c="32"/>
    </g>
    <rect y="220" x="120" width="1200" height="60"/>
   </g>
   <g transform="translate(1717.8,0)" data-mml-node="mo">
    <use xlink:href="#MJX-45-TEX-N-3D" data-c="3D"/>
   </g>
   <g transform="translate(2773.6,0)" data-mml-node="mfrac">
    <g transform="translate(220,676)" data-mml-node="mi">
     <use xlink:href="#MJX-45-TEX-I-1D70B" data-c="1D70B"/>
    </g>
    <g transform="translate(255,-686)" data-mml-node="mn">
     <use xlink:href="#MJX-45-TEX-N-33" data-c="33"/>
    </g>
    <rect y="220" x="120" width="770" height="60"/>
   </g>
   <g transform="translate(4005.8,0)" data-mml-node="mo">
    <use xlink:href="#MJX-45-TEX-N-2212" data-c="2212"/>
   </g>
   <g transform="translate(5006,0)" data-mml-node="mfrac">
    <g transform="translate(220,676)" data-mml-node="mi">
     <use xlink:href="#MJX-45-TEX-I-1D70B" data-c="1D70B"/>
    </g>
    <g transform="translate(255,-686)" data-mml-node="mn">
     <use xlink:href="#MJX-45-TEX-N-34" data-c="34"/>
    </g>
    <rect y="220" x="120" width="770" height="60"/>
   </g>
   <g transform="translate(6016,0)" data-mml-node="mo">
    <use xlink:href="#MJX-45-TEX-N-2C" data-c="2C"/>
   </g>
   <g transform="translate(6460.7,0)" data-mml-node="mtext">
    <use xlink:href="#MJX-45-TEX-N-A0" data-c="A0"/>
   </g>
   <g transform="translate(6710.7,0)" data-mml-node="mfrac">
    <g transform="translate(220,676)" data-mml-node="mrow">
     <g data-mml-node="mn">
      <use xlink:href="#MJX-45-TEX-N-37" data-c="37"/>
     </g>
     <g transform="translate(500,0)" data-mml-node="mi">
      <use xlink:href="#MJX-45-TEX-I-1D70B" data-c="1D70B"/>
     </g>
    </g>
    <g transform="translate(255,-686)" data-mml-node="mn">
     <use xlink:href="#MJX-45-TEX-N-31" data-c="31"/>
     <use transform="translate(500,0)" xlink:href="#MJX-45-TEX-N-32" data-c="32"/>
    </g>
    <rect y="220" x="120" width="1270" height="60"/>
   </g>
   <g transform="translate(8498.4,0)" data-mml-node="mo">
    <use xlink:href="#MJX-45-TEX-N-3D" data-c="3D"/>
   </g>
   <g transform="translate(9554.2,0)" data-mml-node="mfrac">
    <g transform="translate(220,676)" data-mml-node="mi">
     <use xlink:href="#MJX-45-TEX-I-1D70B" data-c="1D70B"/>
    </g>
    <g transform="translate(255,-686)" data-mml-node="mn">
     <use xlink:href="#MJX-45-TEX-N-33" data-c="33"/>
    </g>
    <rect y="220" x="120" width="770" height="60"/>
   </g>
   <g transform="translate(10786.4,0)" data-mml-node="mo">
    <use xlink:href="#MJX-45-TEX-N-2B" data-c="2B"/>
   </g>
   <g transform="translate(11786.7,0)" data-mml-node="mfrac">
    <g transform="translate(220,676)" data-mml-node="mi">
     <use xlink:href="#MJX-45-TEX-I-1D70B" data-c="1D70B"/>
    </g>
    <g transform="translate(255,-686)" data-mml-node="mn">
     <use xlink:href="#MJX-45-TEX-N-34" data-c="34"/>
    </g>
    <rect y="220" x="120" width="770" height="60"/>
   </g>
  </g>
 </g>
</svg>
