<?xml version='1.0' encoding='utf-8'?>
<svg xmlns:xlink="http://www.w3.org/1999/xlink" xmlns="http://www.w3.org/2000/svg" aria-hidden="true" focusable="false" pointer-events="none" style="vertical-align: -1.602ex;" role="img" viewBox="0 -1636.5 4015.4 2344.5" height="5.304ex" width="9.085ex">
 <desc>3+\frac{2\sqrt 2}{5}</desc>
 <defs>
  <path d="M127 463Q100 463 85 480T69 524Q69 579 117 622T233 665Q268 665 277 664Q351 652 390 611T430 522Q430 470 396 421T302 350L299 348Q299 347 308 345T337 336T375 315Q457 262 457 175Q457 96 395 37T238 -22Q158 -22 100 21T42 130Q42 158 60 175T105 193Q133 193 151 175T169 130Q169 119 166 110T159 94T148 82T136 74T126 70T118 67L114 66Q165 21 238 21Q293 21 321 74Q338 107 338 175V195Q338 290 274 322Q259 328 213 329L171 330L168 332Q166 335 166 348Q166 366 174 366Q202 366 232 371Q266 376 294 413T322 525V533Q322 590 287 612Q265 626 240 626Q208 626 181 615T143 592T132 580H135Q138 579 143 578T153 573T165 566T175 555T183 540T186 520Q186 498 172 481T127 463Z" id="MJX-216-TEX-N-33"/>
  <path d="M56 237T56 250T70 270H369V420L370 570Q380 583 389 583Q402 583 409 568V270H707Q722 262 722 250T707 230H409V-68Q401 -82 391 -82H389H387Q375 -82 369 -68V230H70Q56 237 56 250Z" id="MJX-216-TEX-N-2B"/>
  <path d="M109 429Q82 429 66 447T50 491Q50 562 103 614T235 666Q326 666 387 610T449 465Q449 422 429 383T381 315T301 241Q265 210 201 149L142 93L218 92Q375 92 385 97Q392 99 409 186V189H449V186Q448 183 436 95T421 3V0H50V19V31Q50 38 56 46T86 81Q115 113 136 137Q145 147 170 174T204 211T233 244T261 278T284 308T305 340T320 369T333 401T340 431T343 464Q343 527 309 573T212 619Q179 619 154 602T119 569T109 550Q109 549 114 549Q132 549 151 535T170 489Q170 464 154 447T109 429Z" id="MJX-216-TEX-N-32"/>
  <path d="M95 178Q89 178 81 186T72 200T103 230T169 280T207 309Q209 311 212 311H213Q219 311 227 294T281 177Q300 134 312 108L397 -77Q398 -77 501 136T707 565T814 786Q820 800 834 800Q841 800 846 794T853 782V776L620 293L385 -193Q381 -200 366 -200Q357 -200 354 -197Q352 -195 256 15L160 225L144 214Q129 202 113 190T95 178Z" id="MJX-216-TEX-N-221A"/>
  <path d="M164 157Q164 133 148 117T109 101H102Q148 22 224 22Q294 22 326 82Q345 115 345 210Q345 313 318 349Q292 382 260 382H254Q176 382 136 314Q132 307 129 306T114 304Q97 304 95 310Q93 314 93 485V614Q93 664 98 664Q100 666 102 666Q103 666 123 658T178 642T253 634Q324 634 389 662Q397 666 402 666Q410 666 410 648V635Q328 538 205 538Q174 538 149 544L139 546V374Q158 388 169 396T205 412T256 420Q337 420 393 355T449 201Q449 109 385 44T229 -22Q148 -22 99 32T50 154Q50 178 61 192T84 210T107 214Q132 214 148 197T164 157Z" id="MJX-216-TEX-N-35"/>
 </defs>
 <g stroke="currentColor" transform="scale(1,-1)" stroke-width="0" fill="currentColor">
  <g data-mml-node="math">
   <g data-mml-node="mn">
    <use xlink:href="#MJX-216-TEX-N-33" data-c="33"/>
   </g>
   <g transform="translate(722.2,0)" data-mml-node="mo">
    <use xlink:href="#MJX-216-TEX-N-2B" data-c="2B"/>
   </g>
   <g transform="translate(1722.4,0)" data-mml-node="mfrac">
    <g transform="translate(220,676)" data-mml-node="mrow">
     <g data-mml-node="mn">
      <use xlink:href="#MJX-216-TEX-N-32" data-c="32"/>
     </g>
     <g transform="translate(500,0)" data-mml-node="msqrt">
      <g transform="translate(853,0)">
       <g data-mml-node="mn">
        <use xlink:href="#MJX-216-TEX-N-32" data-c="32"/>
       </g>
      </g>
      <g transform="translate(0,100.5)" data-mml-node="mo">
       <use xlink:href="#MJX-216-TEX-N-221A" data-c="221A"/>
      </g>
      <rect y="840.5" x="853" height="60" width="500"/>
     </g>
    </g>
    <g transform="translate(896.5,-686)" data-mml-node="mn">
     <use xlink:href="#MJX-216-TEX-N-35" data-c="35"/>
    </g>
    <rect y="220" x="120" height="60" width="2053"/>
   </g>
  </g>
 </g>
</svg>
